<?xml version="1.0" standalone="no"?>
<!DOCTYPE svg PUBLIC "-//W3C//DTD SVG 20010904//EN"
 "http://www.w3.org/TR/2001/REC-SVG-20010904/DTD/svg10.dtd">
<svg version="1.0" xmlns="http://www.w3.org/2000/svg"
 width="343.000000pt" height="276.000000pt" viewBox="0 0 343.000000 276.000000"
 preserveAspectRatio="xMidYMid meet">

<g transform="translate(0.000000,276.000000) scale(0.100000,-0.100000)"
fill="#ff0000" stroke="none">
<path d="M1364 2685 c-119 -32 -422 -243 -637 -442 -37 -35 -73 -63 -79 -63
-7 0 -24 12 -39 26 -27 26 -61 26 -40 0 6 -7 13 -30 17 -53 6 -40 5 -43 -67
-120 -67 -71 -231 -254 -320 -357 -19 -22 -60 -68 -91 -103 -32 -34 -58 -67
-58 -72 0 -19 20 -21 38 -4 10 10 49 45 87 78 39 33 108 96 155 140 47 44 107
98 134 120 27 22 66 54 85 71 33 28 73 54 84 54 2 0 12 -26 21 -57 39 -131 95
-280 236 -638 49 -123 177 -481 210 -585 13 -43 88 -199 110 -230 25 -35 72
-62 93 -54 67 25 32 233 -99 592 -124 336 -137 369 -236 572 -117 241 -143
291 -197 380 -28 47 -51 88 -51 92 0 16 196 165 370 282 87 58 246 146 264
146 18 0 -39 -141 -194 -475 -84 -183 -140 -354 -140 -431 0 -19 11 -60 26
-89 20 -44 37 -62 92 -99 85 -56 139 -78 410 -170 318 -108 383 -141 664 -343
126 -90 195 -126 231 -121 18 2 22 9 19 36 -4 59 -50 129 -144 224 -175 176
-342 266 -748 401 -294 98 -350 128 -350 186 0 38 44 154 135 356 12 28 32 73
45 100 12 28 30 68 39 90 10 22 32 71 50 108 50 109 73 187 78 262 4 60 1 76
-19 115 -16 29 -39 53 -64 67 -46 25 -53 26 -120 8z"/>
<path d="M2944 2210 c-61 -21 -269 -127 -339 -172 -27 -18 -122 -69 -210 -114
-307 -156 -333 -172 -319 -195 6 -10 28 -6 222 38 84 19 162 33 173 31 17 -2
26 -19 45 -85 29 -101 52 -152 122 -267 76 -127 141 -222 257 -376 239 -319
309 -454 272 -527 -21 -39 -93 -104 -174 -157 -163 -104 -447 -148 -751 -116
-100 11 -116 14 -311 56 -164 35 -211 30 -211 -21 0 -64 144 -160 291 -194
163 -39 488 -51 664 -26 269 38 431 110 577 255 115 114 144 196 114 322 -28
120 -111 263 -297 509 -123 163 -281 405 -325 497 -23 47 -39 97 -42 129 -4
46 -2 54 22 76 15 14 68 41 119 62 159 63 250 115 269 155 14 29 16 43 7 73
-18 67 -75 83 -175 47z"/>
</g>
</svg>
